<?xml version="1.0" encoding="UTF-8" standalone="no"?>
<!-- Created with Inkscape (http://www.inkscape.org/) -->

<svg
   width="13.229166mm"
   height="15.001297mm"
   viewBox="0 0 13.229166 15.001297"
   version="1.1"
   id="svg1"
   xml:space="preserve"
   xmlns="http://www.w3.org/2000/svg"
   xmlns:svg="http://www.w3.org/2000/svg"><defs
     id="defs1"><clipPath
       clipPathUnits="userSpaceOnUse"
       id="clipath_lpe_path-effect1-9"><path
         style="display:none;fill:#ffffff;stroke:none;stroke-width:0.0704178;stroke-linecap:round;stroke-linejoin:bevel;stroke-dasharray:none;paint-order:stroke markers fill"
         d="M 132.3348,8.014013 128.98046,4.9591463 V -6.6218279 c -0.0239,-0.6557018 -0.44999,-1.1489825 -0.71821,-1.4306433 l -13.7795,-15.4925408 c -1.53733,-2.15227 -0.65258,-4.906891 2.20247,-5.496726 h 27.67194 c 2.72944,0.171106 4.12712,3.518137 2.59777,5.252012 L 133.1268,-8.1121406 c -0.72244,0.878971 -0.72508,1.1749132 -0.77203,1.5973269 z"
         id="path5" /><path
         id="lpe_path-effect1-9"
         style="fill:#ffffff;stroke:none;stroke-width:0.0704178;stroke-linecap:round;stroke-linejoin:bevel;stroke-dasharray:none;paint-order:stroke markers fill"
         class="powerclip"
         d="M 85.973518,-50.326522 H 175.34852 V 49.681199 H 85.973518 Z m 46.361282,58.340535 0.02,-14.5288267 c 0.047,-0.4224137 0.0496,-0.7183559 0.77203,-1.5973269 l 13.82813,-15.6775854 c 1.52935,-1.733875 0.13167,-5.080906 -2.59777,-5.252012 h -27.67194 c -2.85505,0.589835 -3.7398,3.344456 -2.20247,5.496726 l 13.7795,15.4925408 c 0.26822,0.2816608 0.69431,0.7749415 0.71821,1.4306433 V 4.9591463 Z" /></clipPath></defs><g
     id="layer1"
     transform="translate(-644.403,252.75501)"><path
       style="fill:#214377;fill-opacity:1;stroke:none;stroke-width:0.776774;stroke-linecap:square;stroke-dasharray:none;paint-order:fill markers stroke"
       d="M 135.13696,44.085019 121.37501,31.389886 c -0.41572,-0.435657 -0.67718,-1.042799 -0.78432,-1.821369 V 6.6870456 L 93.393681,-23.984915 c -5.958712,-8.844648 -0.26076,-19.796599 9.965359,-21.341607 h 54.69721 c 10.90418,1.440175 15.18056,13.496846 10.27502,20.367525 l -27.48474,31.6115358 0.0514,34.6579562 c -0.29285,3.625825 -4.40609,3.920999 -5.76101,2.774524 z"
       id="path2-6-8-1-5-7"
       clip-path="url(#clipath_lpe_path-effect1-9)"
       transform="matrix(0.16666666,0,0,0.16666666,629.24079,-245.20059)" /></g></svg>
